<?xml version="1.0" encoding="UTF-8" standalone="no"?>
<!DOCTYPE svg PUBLIC "-//W3C//DTD SVG 1.1//EN"
 "http://www.w3.org/Graphics/SVG/1.1/DTD/svg11.dtd">
<!-- Generated by graphviz version 7.0.6 (20230106.0513)
 -->
<!-- Title: dependency&#45;cruiser output Pages: 1 -->
<svg width="370pt" height="240pt"
 viewBox="0.00 0.00 370.00 240.00" xmlns="http://www.w3.org/2000/svg" xmlns:xlink="http://www.w3.org/1999/xlink">
<g id="graph0" class="graph" transform="scale(1 1) rotate(0) translate(4 236)">
<title>dependency&#45;cruiser output</title>
<polygon fill="white" stroke="none" points="-4,4 -4,-236 366,-236 366,4 -4,4"/>
<g id="clust1" class="cluster">
<title>cluster_src</title>
<path fill="#ffffff" stroke="black" stroke-width="2" d="M20,-8C20,-8 342,-8 342,-8 348,-8 354,-14 354,-20 354,-20 354,-212 354,-212 354,-218 348,-224 342,-224 342,-224 20,-224 20,-224 14,-224 8,-218 8,-212 8,-212 8,-20 8,-20 8,-14 14,-8 20,-8"/>
<text text-anchor="middle" x="181" y="-212.8" font-family="Helvetica,sans-Serif" font-weight="bold" font-size="9.00">src</text>
</g>
<g id="clust2" class="cluster">
<title>cluster_src/components</title>
<path fill="#ffffff" stroke="black" stroke-width="2" d="M170,-16C170,-16 272,-16 272,-16 278,-16 284,-22 284,-28 284,-28 284,-176 284,-176 284,-182 278,-188 272,-188 272,-188 170,-188 170,-188 164,-188 158,-182 158,-176 158,-176 158,-28 158,-28 158,-22 164,-16 170,-16"/>
<text text-anchor="middle" x="221" y="-176.8" font-family="Helvetica,sans-Serif" font-weight="bold" font-size="9.00">components</text>
</g>
<!-- src/App.tsx -->
<g id="node1" class="node">
<title>src/App.tsx</title>
<g id="a_node1"><a xlink:href="src/App.tsx" xlink:title="App.tsx">
<path fill="#bbfeff" stroke="black" d="M143,-117C143,-117 101,-117 101,-117 98,-117 95,-114 95,-111 95,-111 95,-105 95,-105 95,-102 98,-99 101,-99 101,-99 143,-99 143,-99 146,-99 149,-102 149,-105 149,-105 149,-111 149,-111 149,-114 146,-117 143,-117"/>
<text text-anchor="start" x="107" y="-105.8" font-family="Helvetica,sans-Serif" font-size="9.00">App.tsx</text>
</a>
</g>
</g>
<!-- src/components/CharacterModal.tsx -->
<g id="node2" class="node">
<title>src/components/CharacterModal.tsx</title>
<g id="a_node2"><a xlink:href="src/components/CharacterModal.tsx" xlink:title="CharacterModal.tsx">
<path fill="#bbfeff" stroke="black" d="M262.5,-162C262.5,-162 179.5,-162 179.5,-162 176.5,-162 173.5,-159 173.5,-156 173.5,-156 173.5,-150 173.5,-150 173.5,-147 176.5,-144 179.5,-144 179.5,-144 262.5,-144 262.5,-144 265.5,-144 268.5,-147 268.5,-150 268.5,-150 268.5,-156 268.5,-156 268.5,-159 265.5,-162 262.5,-162"/>
<text text-anchor="start" x="181.5" y="-150.8" font-family="Helvetica,sans-Serif" font-size="9.00">CharacterModal.tsx</text>
</a>
</g>
</g>
<!-- src/App.tsx&#45;&gt;src/components/CharacterModal.tsx -->
<g id="edge1" class="edge">
<title>src/App.tsx&#45;&gt;src/components/CharacterModal.tsx</title>
<path fill="none" stroke="#000000" stroke-width="2" stroke-opacity="0.200000" d="M143.11,-117.42C145.6,-119.07 147.97,-120.93 150,-123 155.3,-128.39 152.03,-133.37 158,-138 160.28,-139.76 162.73,-141.32 165.3,-142.7"/>
<polygon fill="#000000" fill-opacity="0.200000" stroke="#000000" stroke-width="2" stroke-opacity="0.200000" points="164.22,-144.52 170.55,-145.08 165.95,-140.69 164.22,-144.52"/>
</g>
<!-- src/components/ListHeader.tsx -->
<g id="node3" class="node">
<title>src/components/ListHeader.tsx</title>
<g id="a_node3"><a xlink:href="src/components/ListHeader.tsx" xlink:title="ListHeader.tsx">
<path fill="#bbfeff" stroke="black" d="M253,-132C253,-132 189,-132 189,-132 186,-132 183,-129 183,-126 183,-126 183,-120 183,-120 183,-117 186,-114 189,-114 189,-114 253,-114 253,-114 256,-114 259,-117 259,-120 259,-120 259,-126 259,-126 259,-129 256,-132 253,-132"/>
<text text-anchor="start" x="191" y="-120.8" font-family="Helvetica,sans-Serif" font-size="9.00">ListHeader.tsx</text>
</a>
</g>
</g>
<!-- src/App.tsx&#45;&gt;src/components/ListHeader.tsx -->
<g id="edge2" class="edge">
<title>src/App.tsx&#45;&gt;src/components/ListHeader.tsx</title>
<path fill="none" stroke="#000000" stroke-width="2" stroke-opacity="0.200000" d="M149.25,-112.06C156.91,-113.24 165.52,-114.58 174.02,-115.89"/>
<polygon fill="#000000" fill-opacity="0.200000" stroke="#000000" stroke-width="2" stroke-opacity="0.200000" points="173.56,-117.94 179.81,-116.79 174.2,-113.79 173.56,-117.94"/>
</g>
<!-- src/components/ListItem.tsx -->
<g id="node4" class="node">
<title>src/components/ListItem.tsx</title>
<g id="a_node4"><a xlink:href="src/components/ListItem.tsx" xlink:title="ListItem.tsx">
<path fill="#bbfeff" stroke="black" d="M246.5,-102C246.5,-102 195.5,-102 195.5,-102 192.5,-102 189.5,-99 189.5,-96 189.5,-96 189.5,-90 189.5,-90 189.5,-87 192.5,-84 195.5,-84 195.5,-84 246.5,-84 246.5,-84 249.5,-84 252.5,-87 252.5,-90 252.5,-90 252.5,-96 252.5,-96 252.5,-99 249.5,-102 246.5,-102"/>
<text text-anchor="start" x="197.5" y="-90.8" font-family="Helvetica,sans-Serif" font-size="9.00">ListItem.tsx</text>
</a>
</g>
</g>
<!-- src/App.tsx&#45;&gt;src/components/ListItem.tsx -->
<g id="edge3" class="edge">
<title>src/App.tsx&#45;&gt;src/components/ListItem.tsx</title>
<path fill="none" stroke="#000000" stroke-width="2" stroke-opacity="0.200000" d="M149.25,-103.94C158.89,-102.45 170.03,-100.73 180.58,-99.1"/>
<polygon fill="#000000" fill-opacity="0.200000" stroke="#000000" stroke-width="2" stroke-opacity="0.200000" points="180.66,-101.21 186.27,-98.22 180.01,-97.06 180.66,-101.21"/>
</g>
<!-- src/components/PaginationControls.tsx -->
<g id="node5" class="node">
<title>src/components/PaginationControls.tsx</title>
<g id="a_node5"><a xlink:href="src/components/PaginationControls.tsx" xlink:title="PaginationControls.tsx">
<path fill="#bbfeff" stroke="black" d="M270,-72C270,-72 172,-72 172,-72 169,-72 166,-69 166,-66 166,-66 166,-60 166,-60 166,-57 169,-54 172,-54 172,-54 270,-54 270,-54 273,-54 276,-57 276,-60 276,-60 276,-66 276,-66 276,-69 273,-72 270,-72"/>
<text text-anchor="start" x="174" y="-60.8" font-family="Helvetica,sans-Serif" font-size="9.00">PaginationControls.tsx</text>
</a>
</g>
</g>
<!-- src/App.tsx&#45;&gt;src/components/PaginationControls.tsx -->
<g id="edge4" class="edge">
<title>src/App.tsx&#45;&gt;src/components/PaginationControls.tsx</title>
<path fill="none" stroke="#000000" stroke-width="2" stroke-opacity="0.200000" d="M131.62,-98.53C138.22,-91.84 147.88,-83.18 158,-78 159.55,-77.21 161.15,-76.45 162.78,-75.74"/>
<polygon fill="#000000" fill-opacity="0.200000" stroke="#000000" stroke-width="2" stroke-opacity="0.200000" points="163.49,-77.71 168.32,-73.58 161.97,-73.8 163.49,-77.71"/>
</g>
<!-- src/components/SkeletonListItem.tsx -->
<g id="node6" class="node">
<title>src/components/SkeletonListItem.tsx</title>
<g id="a_node6"><a xlink:href="src/components/SkeletonListItem.tsx" xlink:title="SkeletonListItem.tsx">
<path fill="#bbfeff" stroke="black" d="M264.5,-42C264.5,-42 177.5,-42 177.5,-42 174.5,-42 171.5,-39 171.5,-36 171.5,-36 171.5,-30 171.5,-30 171.5,-27 174.5,-24 177.5,-24 177.5,-24 264.5,-24 264.5,-24 267.5,-24 270.5,-27 270.5,-30 270.5,-30 270.5,-36 270.5,-36 270.5,-39 267.5,-42 264.5,-42"/>
<text text-anchor="start" x="179.5" y="-30.8" font-family="Helvetica,sans-Serif" font-size="9.00">SkeletonListItem.tsx</text>
</a>
</g>
</g>
<!-- src/App.tsx&#45;&gt;src/components/SkeletonListItem.tsx -->
<g id="edge5" class="edge">
<title>src/App.tsx&#45;&gt;src/components/SkeletonListItem.tsx</title>
<path fill="none" stroke="#000000" stroke-width="2" stroke-opacity="0.200000" d="M125.82,-98.7C130.36,-85.36 140.59,-60.96 158,-48 159.62,-46.79 161.33,-45.68 163.1,-44.65"/>
<polygon fill="#000000" fill-opacity="0.200000" stroke="#000000" stroke-width="2" stroke-opacity="0.200000" points="164.02,-46.54 168.5,-42.03 162.18,-42.77 164.02,-46.54"/>
</g>
<!-- src/types.ts -->
<g id="node7" class="node">
<title>src/types.ts</title>
<g id="a_node7"><a xlink:href="src/types.ts" xlink:title="types.ts">
<path fill="#ddfeff" stroke="black" d="M340,-162C340,-162 298,-162 298,-162 295,-162 292,-159 292,-156 292,-156 292,-150 292,-150 292,-147 295,-144 298,-144 298,-144 340,-144 340,-144 343,-144 346,-147 346,-150 346,-150 346,-156 346,-156 346,-159 343,-162 340,-162"/>
<text text-anchor="start" x="303" y="-150.8" font-family="Helvetica,sans-Serif" font-size="9.00">types.ts</text>
</a>
</g>
</g>
<!-- src/App.tsx&#45;&gt;src/types.ts -->
<g id="edge6" class="edge">
<title>src/App.tsx&#45;&gt;src/types.ts</title>
<path fill="none" stroke="#000000" stroke-width="2" stroke-opacity="0.200000" d="M144.67,-117.38C146.72,-119 148.57,-120.86 150,-123 158.47,-135.64 146.63,-180.89 158,-191 199.85,-228.21 232.88,-213.86 284,-191 294.02,-186.52 302.32,-177.46 308.2,-169.31"/>
<polygon fill="#000000" fill-opacity="0.200000" stroke="#000000" stroke-width="2" stroke-opacity="0.200000" points="309.65,-170.92 311.23,-164.76 306.16,-168.59 309.65,-170.92"/>
</g>
<!-- src/components/CharacterModal.tsx&#45;&gt;src/types.ts -->
<g id="edge7" class="edge">
<title>src/components/CharacterModal.tsx&#45;&gt;src/types.ts</title>
<path fill="none" stroke="#000000" stroke-width="2" stroke-opacity="0.200000" d="M268.88,-153C273.51,-153 278.16,-153 282.65,-153"/>
<polygon fill="#000000" fill-opacity="0.200000" stroke="#000000" stroke-width="2" stroke-opacity="0.200000" points="282.56,-155.1 288.56,-153 282.56,-150.9 282.56,-155.1"/>
</g>
<!-- src/components/ListItem.tsx&#45;&gt;src/types.ts -->
<g id="edge8" class="edge">
<title>src/components/ListItem.tsx&#45;&gt;src/types.ts</title>
<path fill="none" stroke="#000000" stroke-width="2" stroke-opacity="0.200000" d="M252.69,-96.15C263.25,-98.31 274.74,-101.93 284,-108 294.51,-114.9 303.03,-126.19 308.91,-135.74"/>
<polygon fill="#000000" fill-opacity="0.200000" stroke="#000000" stroke-width="2" stroke-opacity="0.200000" points="307.07,-136.75 311.88,-140.91 310.71,-134.66 307.07,-136.75"/>
</g>
<!-- src/index.css -->
<g id="node8" class="node">
<title>src/index.css</title>
<g id="a_node8"><a xlink:href="src/index.css" xlink:title="index.css">
<path fill="#ffffcc" stroke="black" d="M144,-147C144,-147 100,-147 100,-147 97,-147 94,-144 94,-141 94,-141 94,-135 94,-135 94,-132 97,-129 100,-129 100,-129 144,-129 144,-129 147,-129 150,-132 150,-135 150,-135 150,-141 150,-141 150,-144 147,-147 144,-147"/>
<text text-anchor="start" x="102" y="-135.8" font-family="Helvetica,sans-Serif" font-size="9.00">index.css</text>
</a>
</g>
</g>
<!-- src/main.tsx -->
<g id="node9" class="node">
<title>src/main.tsx</title>
<g id="a_node9"><a xlink:href="src/main.tsx" xlink:title="main.tsx">
<path fill="#bbfeff" stroke="black" d="M69.5,-132C69.5,-132 27.5,-132 27.5,-132 24.5,-132 21.5,-129 21.5,-126 21.5,-126 21.5,-120 21.5,-120 21.5,-117 24.5,-114 27.5,-114 27.5,-114 69.5,-114 69.5,-114 72.5,-114 75.5,-117 75.5,-120 75.5,-120 75.5,-126 75.5,-126 75.5,-129 72.5,-132 69.5,-132"/>
<text text-anchor="start" x="31" y="-120.8" font-family="Helvetica,sans-Serif" font-size="9.00">main.tsx</text>
</a>
</g>
</g>
<!-- src/main.tsx&#45;&gt;src/App.tsx -->
<g id="edge9" class="edge">
<title>src/main.tsx&#45;&gt;src/App.tsx</title>
<path fill="none" stroke="#000000" stroke-width="2" stroke-opacity="0.200000" d="M75.72,-117.5C79.12,-116.79 82.64,-116.05 86.16,-115.31"/>
<polygon fill="#000000" fill-opacity="0.200000" stroke="#000000" stroke-width="2" stroke-opacity="0.200000" points="86.38,-117.41 91.82,-114.12 85.52,-113.3 86.38,-117.41"/>
</g>
<!-- src/main.tsx&#45;&gt;src/index.css -->
<g id="edge10" class="edge">
<title>src/main.tsx&#45;&gt;src/index.css</title>
<path fill="none" stroke="#000000" stroke-width="2" stroke-opacity="0.200000" d="M75.72,-128.5C78.76,-129.14 81.9,-129.8 85.04,-130.46"/>
<polygon fill="#000000" fill-opacity="0.200000" stroke="#000000" stroke-width="2" stroke-opacity="0.200000" points="84.56,-132.5 90.86,-131.68 85.42,-128.39 84.56,-132.5"/>
</g>
<!-- src/vite&#45;env.d.ts -->
<g id="node10" class="node">
<title>src/vite&#45;env.d.ts</title>
<g id="a_node10"><a xlink:href="src/vite-env.d.ts" xlink:title="vite&#45;env.d.ts">
<path fill="#ccffcc" stroke="black" d="M75,-68C75,-68 22,-68 22,-68 19,-68 16,-65 16,-62 16,-62 16,-56 16,-56 16,-53 19,-50 22,-50 22,-50 75,-50 75,-50 78,-50 81,-53 81,-56 81,-56 81,-62 81,-62 81,-65 78,-68 75,-68"/>
<text text-anchor="start" x="24" y="-56.8" font-family="Helvetica,sans-Serif" font-size="9.00">vite&#45;env.d.ts</text>
</a>
</g>
</g>
</g>
</svg>
